<svg width="20" height="20" viewBox="0 0 20 20" fill="none" xmlns="http://www.w3.org/2000/svg">
<path d="M1 1H4.27273L6.46545 12.4771C6.54027 12.8718 6.7452 13.2262 7.04436 13.4785C7.34351 13.7308 7.71784 13.8648 8.10182 13.8571H16.0545C16.4385 13.8648 16.8129 13.7308 17.112 13.4785C17.4112 13.2262 17.6161 12.8718 17.6909 12.4771L19 5.28571H5.09091M8.36366 18.1429C8.36366 18.6162 7.99735 19 7.54548 19C7.09361 19 6.72729 18.6162 6.72729 18.1429C6.72729 17.6695 7.09361 17.2857 7.54548 17.2857C7.99735 17.2857 8.36366 17.6695 8.36366 18.1429ZM17.3637 18.1429C17.3637 18.6162 16.9973 19 16.5455 19C16.0936 19 15.7273 18.6162 15.7273 18.1429C15.7273 17.6695 16.0936 17.2857 16.5455 17.2857C16.9973 17.2857 17.3637 17.6695 17.3637 18.1429Z" stroke="#9B9B9B" stroke-width="2" stroke-linecap="round" stroke-linejoin="round"/>
</svg>
