<svg width="34" height="34" viewBox="0 0 34 34" fill="none" xmlns="http://www.w3.org/2000/svg">
<path d="M1 8C1 4.13401 4.13401 1 8 1H26C29.866 1 33 4.13401 33 8V26C33 29.866 29.866 33 26 33H8C4.13401 33 1 29.866 1 26V8Z" fill="white"/>
<path d="M1 8C1 4.13401 4.13401 1 8 1H26C29.866 1 33 4.13401 33 8V26C33 29.866 29.866 33 26 33H8C4.13401 33 1 29.866 1 26V8Z" stroke="#EAEAEA" stroke-width="1.2" stroke-linecap="round" stroke-linejoin="round"/>
<path d="M22.8609 12.0746C22.5204 11.7339 22.1161 11.4636 21.6711 11.2793C21.2261 11.0949 20.7492 11 20.2675 11C19.7859 11 19.3089 11.0949 18.864 11.2793C18.419 11.4636 18.0147 11.7339 17.6742 12.0746L16.9675 12.7812L16.2609 12.0746C15.5731 11.3868 14.6402 11.0004 13.6675 11.0004C12.6948 11.0004 11.762 11.3868 11.0742 12.0746C10.3864 12.7623 10 13.6952 10 14.6679C10 15.6406 10.3864 16.5734 11.0742 17.2612L16.9675 23.1546L22.8609 17.2612C23.2015 16.9207 23.4718 16.5164 23.6561 16.0715C23.8405 15.6265 23.9354 15.1495 23.9354 14.6679C23.9354 14.1862 23.8405 13.7093 23.6561 13.2643C23.4718 12.8193 23.2015 12.4151 22.8609 12.0746Z" stroke="#EAEAEA" stroke-width="1.2" stroke-linecap="round" stroke-linejoin="round"/>
</svg>
